<svg width="20" height="20" viewBox="0 0 20 20" fill="none" xmlns="http://www.w3.org/2000/svg">
<g clip-path="url(#clip0_30_252)">
<path fill-rule="evenodd" clip-rule="evenodd" d="M12.0429 0.404L12.2562 2.79467C12.5482 2.892 12.8296 3.008 13.1042 3.13734L14.9202 1.568C16.2103 2.35158 17.3012 3.42366 18.1069 4.7L16.5682 6.54134C16.7029 6.812 16.8216 7.092 16.9242 7.38134L19.3189 7.55467C19.6256 8.804 19.6896 10.1493 19.4589 11.5373L19.3656 12.0227L16.9816 12.2373C16.8862 12.5318 16.7722 12.82 16.6402 13.1L18.2176 14.9253C17.4396 16.2177 16.3679 17.3085 15.0896 18.1093L13.2389 16.5627C12.9602 16.7004 12.6729 16.8202 12.3789 16.9213L12.2056 19.308L12.0189 19.352C10.6082 19.6583 9.14767 19.6538 7.73893 19.3387L7.5256 16.948C7.23614 16.8513 6.95294 16.7369 6.6776 16.6053L4.86427 18.176C3.57354 17.3922 2.48227 16.3197 1.67627 15.0427L3.21493 13.2027C3.07868 12.9303 2.95935 12.6498 2.8576 12.3627L0.46293 12.1893C0.145752 10.8847 0.0981133 9.529 0.32293 8.20534L0.416263 7.72L2.8136 7.50667C2.9136 7.22934 3.03493 6.95334 3.17493 6.68267L1.63493 4.9C2.46133 3.63803 3.52997 2.55262 4.77893 1.70667L6.58693 3.21867C6.8536 3.072 7.1256 2.94667 7.40027 2.84134L7.5736 0.434667L7.76026 0.390667C9.17183 0.0838709 10.6333 0.0884209 12.0429 0.404ZM8.82692 5.13067C7.1696 5.48267 5.50427 7.14934 5.15093 8.80667C4.97318 9.60584 4.99999 10.437 5.22887 11.2231C5.45775 12.0092 5.88131 12.7248 6.4603 13.3037C7.0393 13.8825 7.75502 14.3059 8.54117 14.5346C9.32733 14.7633 10.1584 14.7899 10.9576 14.612C11.8595 14.4188 12.6863 13.9691 13.3385 13.3169C13.9907 12.6647 14.4404 11.8379 14.6336 10.936C14.8113 10.1368 14.7846 9.30567 14.5557 8.51959C14.3267 7.73349 13.9032 7.01787 13.3242 6.439C12.7452 5.86014 12.0295 5.43675 11.2434 5.20805C10.4572 4.97935 9.62608 4.95274 8.82692 5.13067Z" fill="#93979B"/>
</g>
<defs>
<clipPath id="clip0_30_252">
<rect width="20" height="20" fill="white"/>
</clipPath>
</defs>
</svg>
