<svg width="20" height="20" viewBox="0 0 20 20" fill="none" xmlns="http://www.w3.org/2000/svg">
<g clip-path="url(#clip0_30_265)">
<path fill-rule="evenodd" clip-rule="evenodd" d="M15.7467 11.2931C15.7787 11.2929 15.8096 11.3059 15.8326 11.3296L19.7709 15.3718C19.7881 15.3897 19.7999 15.4126 19.805 15.4377C19.8099 15.4627 19.8079 15.4888 19.799 15.5126L19.7709 15.5596L15.8326 19.6018C15.8153 19.6198 15.7934 19.6319 15.7696 19.6368C15.7457 19.6416 15.7211 19.6388 15.6988 19.6287C15.6765 19.6187 15.6575 19.6018 15.6442 19.5804C15.6309 19.5588 15.6238 19.5336 15.6239 19.5078V16.7674H11.9484V14.2474L15.6239 14.2461V11.4235C15.6239 11.3889 15.6369 11.3558 15.6599 11.3312C15.683 11.3068 15.7142 11.2931 15.7467 11.2931ZM15.9554 0.0378418C16.281 0.0378418 16.5932 0.175264 16.8235 0.419877C17.0537 0.664489 17.183 0.996258 17.183 1.34219V9.16567H14.837V2.5461H2.39018V14.4796H10.301V16.9865L1.22762 16.9878C0.902035 16.9878 0.589786 16.8504 0.359562 16.6058C0.129338 16.3612 0 16.0294 0 15.6835V1.34349C0 0.997563 0.129338 0.665793 0.359562 0.421181C0.589786 0.176568 0.902035 0.0391461 1.22762 0.0391461H15.9554V0.0378418ZM6.55427 9.46175C6.65195 9.46175 6.74563 9.50297 6.81469 9.57636C6.88376 9.64975 6.92256 9.74932 6.92256 9.85306V11.3739C6.92256 11.4777 6.88376 11.5772 6.81469 11.6506C6.74563 11.724 6.65195 11.7652 6.55427 11.7652H4.4354C4.33772 11.7652 4.24404 11.724 4.17498 11.6506C4.10591 11.5772 4.06711 11.4777 4.06711 11.3739V9.85306C4.06711 9.74932 4.10591 9.64975 4.17498 9.57636C4.24404 9.50297 4.33772 9.46175 4.4354 9.46175H6.55304H6.55427ZM12.464 9.46175C12.5617 9.46175 12.6554 9.50297 12.7244 9.57636C12.7936 9.64975 12.8323 9.74932 12.8323 9.85306V11.3739C12.8323 11.4777 12.7936 11.5772 12.7244 11.6506C12.6554 11.724 12.5617 11.7652 12.464 11.7652H8.29258C8.1949 11.7652 8.10123 11.724 8.03216 11.6506C7.9631 11.5772 7.9243 11.4777 7.9243 11.3739V9.85306C7.9243 9.74932 7.9631 9.64975 8.03216 9.57636C8.10123 9.50297 8.1949 9.46175 8.29258 9.46175H12.464ZM6.55304 5.3061C6.65072 5.3061 6.74439 5.34733 6.81346 5.42071C6.88253 5.49409 6.92133 5.59362 6.92133 5.69741V7.21958C6.92133 7.32336 6.88253 7.42289 6.81346 7.49628C6.74439 7.56966 6.65072 7.61088 6.55304 7.61088H4.4354C4.33772 7.61088 4.24404 7.56966 4.17498 7.49628C4.10591 7.42289 4.06711 7.32336 4.06711 7.21958V5.69741C4.06711 5.59362 4.10591 5.49409 4.17498 5.42071C4.24404 5.34733 4.33772 5.3061 4.4354 5.3061H6.55304ZM12.4628 5.3061C12.5605 5.3061 12.6542 5.34733 12.7232 5.42071C12.7923 5.49409 12.8311 5.59362 12.8311 5.69741V7.21958C12.8311 7.32336 12.7923 7.42289 12.7232 7.49628C12.6542 7.56966 12.5605 7.61088 12.4628 7.61088H8.29258C8.1949 7.61088 8.10123 7.56966 8.03216 7.49628C7.9631 7.42289 7.9243 7.32336 7.9243 7.21958V5.69741C7.9243 5.59362 7.9631 5.49409 8.03216 5.42071C8.10123 5.34733 8.1949 5.3061 8.29258 5.3061H12.4628Z" fill="#297AC4"/>
</g>
<defs>
<clipPath id="clip0_30_265">
<rect width="20" height="20" fill="white"/>
</clipPath>
</defs>
</svg>
