<svg width="20" height="20" viewBox="0 0 20 20" fill="none" xmlns="http://www.w3.org/2000/svg">
<g clip-path="url(#clip0_30_250)">
<path fill-rule="evenodd" clip-rule="evenodd" d="M10.1324 17.7212C6.93991 17.7112 4.04116 15.8212 2.80116 12.9387C2.18207 11.5362 2.0005 9.97966 2.28015 8.47233C2.55981 6.96497 3.28769 5.57707 4.36866 4.49C6.56241 2.2775 9.94366 1.61125 12.8974 2.81125C16.3824 4.2525 18.3962 7.8525 17.7287 11.4487C17.0612 15.0462 13.8949 17.6612 10.1324 17.7212ZM18.0699 15.7712C21.0299 11.71 20.3699 6.0875 16.5324 2.68125C12.7162 -0.697507 6.91991 -0.698756 3.20741 2.67625C-0.523837 6.08 -1.01009 11.7012 2.07616 15.765C5.12866 19.8137 10.8237 20.955 15.1737 18.3925C15.2126 18.4212 15.2545 18.4454 15.2987 18.465L18.0049 19.1737C18.1185 19.204 18.2381 19.204 18.3517 19.1737C18.4652 19.1434 18.5689 19.084 18.6524 19.0012C18.7343 18.9186 18.7927 18.8156 18.8214 18.7028C18.8502 18.5902 18.8484 18.4717 18.8162 18.36L18.0687 15.7725L18.0699 15.7712ZM12.7174 11.6025C12.6457 11.5236 12.5536 11.4661 12.4512 11.4365C12.3487 11.4069 12.2401 11.4064 12.1374 11.435C12.0341 11.4667 11.9411 11.5256 11.8681 11.6053C11.7952 11.6852 11.7448 11.783 11.7224 11.8887C11.697 11.9979 11.699 12.1117 11.7282 12.2198C11.7574 12.328 11.813 12.4272 11.8899 12.5087L12.1962 12.8312H6.64991C6.58489 12.8338 6.52102 12.8492 6.46199 12.8767C6.40296 12.904 6.34996 12.9428 6.30601 12.9908C6.26208 13.0388 6.2281 13.0951 6.20602 13.1563C6.18395 13.2175 6.17422 13.2825 6.17741 13.3475L6.18116 13.5975C6.17366 13.8687 6.39241 14.0975 6.66991 14.1125H12.2199L11.9237 14.4375C11.8493 14.5201 11.7969 14.62 11.7712 14.7281C11.7453 14.8362 11.7471 14.949 11.7762 15.0562C11.8262 15.2687 11.9899 15.4437 12.2062 15.51C12.3081 15.5391 12.4161 15.5387 12.5178 15.5092C12.6195 15.4795 12.7108 15.4217 12.7812 15.3425L14.0787 13.9262C14.1886 13.8003 14.2481 13.6382 14.2455 13.4711C14.243 13.304 14.1787 13.1437 14.0649 13.0212L12.7174 11.6025ZM7.59491 8.4375C7.67382 8.43766 7.75186 8.421 7.82384 8.38866C7.89582 8.35633 7.96011 8.30907 8.01241 8.25C8.12236 8.12411 8.18181 7.96197 8.17926 7.79486C8.17672 7.62774 8.11239 7.46748 7.99866 7.345L7.69241 7.0225H13.2424C13.3073 7.0201 13.3711 7.00481 13.4301 6.97754C13.489 6.95026 13.542 6.91154 13.5858 6.86361C13.6297 6.8157 13.6636 6.75953 13.6855 6.69839C13.7074 6.63725 13.717 6.57236 13.7137 6.5075L13.7099 6.2575C13.7117 6.12488 13.6615 5.99684 13.5702 5.90064C13.4789 5.80444 13.3537 5.7477 13.2212 5.7425H7.67116L7.96866 5.4175C8.07811 5.29171 8.13701 5.12982 8.13401 4.96312C8.13101 4.79642 8.06631 4.63676 7.95241 4.515C7.89896 4.45657 7.83399 4.40988 7.76157 4.37785C7.68916 4.34582 7.61089 4.32917 7.53171 4.32893C7.45253 4.3287 7.37416 4.34489 7.30156 4.37649C7.22896 4.40808 7.16371 4.45439 7.10991 4.5125L5.81241 5.93C5.7022 6.05575 5.64259 6.21794 5.64513 6.38514C5.64767 6.55234 5.71218 6.71264 5.82616 6.835L7.16991 8.25C7.22393 8.30886 7.28961 8.35583 7.36279 8.38791C7.43596 8.42 7.51502 8.43766 7.59491 8.4375ZM6.78241 9.325C6.7174 9.32725 6.65347 9.34366 6.59437 9.37083C6.53527 9.39808 6.48218 9.43675 6.4382 9.48466C6.39421 9.53266 6.36022 9.58883 6.3382 9.65008C6.31617 9.71125 6.30656 9.77625 6.30991 9.84125L6.31366 10.0962C6.30616 10.3662 6.52366 10.5962 6.80116 10.6112H13.5099C13.5749 10.609 13.6388 10.5938 13.698 10.5667C13.7571 10.5394 13.8102 10.5007 13.8542 10.4528C13.8981 10.4048 13.9321 10.3487 13.9542 10.2874C13.9762 10.2262 13.9857 10.1612 13.9824 10.0962L13.9774 9.84375C13.9795 9.711 13.9297 9.58266 13.8387 9.48608C13.7477 9.38941 13.6226 9.33208 13.4899 9.32625H6.78366L6.78241 9.325Z" fill="#93979B"/>
</g>
<defs>
<clipPath id="clip0_30_250">
<rect width="20" height="20" fill="white"/>
</clipPath>
</defs>
</svg>
