<svg width="17" height="17" viewBox="0 0 17 17" fill="none" xmlns="http://www.w3.org/2000/svg">
<g clip-path="url(#clip0_24_240)">
<path d="M1.648 6C1.648 3.597 3.597 1.648 6 1.648C8.403 1.648 10.352 3.597 10.352 6C10.352 8.403 8.403 10.352 6 10.352C3.597 10.352 1.648 8.403 1.648 6ZM16.916 15.565L10.863 9.504C11.575 8.518 12 7.31 12 6C12 2.687 9.314 0 6 0C2.687 0 0 2.687 0 6C0 9.313 2.687 12 6 12C7.281 12 8.465 11.595 9.44 10.912L15.498 16.978L16.916 15.565Z" fill="#297AC4"/>
</g>
<defs>
<clipPath id="clip0_24_240">
<rect width="17" height="17" fill="white"/>
</clipPath>
</defs>
</svg>
